<svg width="18" height="18" viewBox="0 0 18 18" fill="none" xmlns="http://www.w3.org/2000/svg">
<g id="marker">
<path id="Vector" d="M9.40351 15.7964L9.90554 16.2842L9.40351 15.7964ZM8.59638 15.7964L9.09841 15.3086L8.59638 15.7964ZM8.99673 7.19659V6.49659C8.61013 6.49659 8.29673 6.80999 8.29673 7.19659H8.99673ZM9.00273 7.19659H9.70273C9.70273 6.80999 9.38933 6.49659 9.00273 6.49659V7.19659ZM9.00273 7.20302V7.90302C9.38933 7.90302 9.70273 7.58962 9.70273 7.20302H9.00273ZM8.99673 7.20302H8.29673C8.29673 7.58962 8.61013 7.90302 8.99673 7.90302V7.20302ZM13.5714 7.13475C13.5714 8.59988 12.7648 10.3008 11.7183 11.8624C10.6886 13.399 9.5038 14.6887 8.90148 15.3086L9.90554 16.2842C10.5363 15.6351 11.7854 14.2772 12.8814 12.6418C13.9605 11.0314 14.9714 9.03606 14.9714 7.13475H13.5714ZM9.09841 15.3086C8.49609 14.6887 7.31127 13.399 6.28154 11.8624C5.23505 10.3008 4.42852 8.59988 4.42852 7.13475H3.02852C3.02852 9.03606 4.03936 11.0314 5.11854 12.6418C6.21446 14.2772 7.46358 15.6351 8.09435 16.2842L9.09841 15.3086ZM4.42852 7.13475C4.42852 4.56701 6.48309 2.4998 8.99994 2.4998V1.0998C5.69413 1.0998 3.02852 3.80967 3.02852 7.13475H4.42852ZM8.99994 2.4998C11.5168 2.4998 13.5714 4.56701 13.5714 7.13475H14.9714C14.9714 3.80967 12.3058 1.0998 8.99994 1.0998V2.4998ZM8.90148 15.3086C8.92258 15.2869 8.9586 15.2695 8.99994 15.2695C9.04129 15.2695 9.0773 15.2869 9.09841 15.3086L8.09435 16.2842C8.59354 16.7979 9.40635 16.7979 9.90554 16.2842L8.90148 15.3086ZM9.19994 7.1998C9.19994 7.31026 9.1104 7.39981 8.99994 7.39981V8.7998C9.8836 8.7998 10.5999 8.08346 10.5999 7.1998H9.19994ZM8.99994 7.39981C8.88949 7.39981 8.79994 7.31026 8.79994 7.1998H7.39994C7.39994 8.08346 8.11629 8.7998 8.99994 8.7998V7.39981ZM8.79994 7.1998C8.79994 7.08935 8.88949 6.9998 8.99994 6.9998V5.5998C8.11629 5.5998 7.39994 6.31615 7.39994 7.1998H8.79994ZM8.99994 6.9998C9.1104 6.9998 9.19994 7.08935 9.19994 7.1998H10.5999C10.5999 6.31615 9.8836 5.5998 8.99994 5.5998V6.9998ZM8.99673 7.89659H9.00273V6.49659H8.99673V7.89659ZM8.30273 7.19659V7.20302H9.70273V7.19659H8.30273ZM9.00273 6.50302H8.99673V7.90302H9.00273V6.50302ZM9.69673 7.20302V7.19659H8.29673V7.20302H9.69673Z" fill="black"/>
</g>
</svg>
