<svg width="27" height="10" viewBox="0 0 27 10" fill="none" xmlns="http://www.w3.org/2000/svg">
<path id="visa-logo" fill-rule="evenodd" clip-rule="evenodd" d="M6.75034 9.08471H4.50018L2.81284 2.64739C2.73275 2.35127 2.5627 2.08949 2.31256 1.9661C1.6883 1.65604 1.00042 1.40928 0.25 1.28482V1.03698H3.87483C4.37511 1.03698 4.75032 1.40928 4.81286 1.84165L5.68835 6.4851L7.93741 1.03698H10.125L6.75034 9.08471ZM11.3753 9.08471H9.25022L11.0001 1.03698H13.1252L11.3753 9.08471ZM15.8716 3.26614C15.9341 2.8327 16.3093 2.58486 16.7471 2.58486C17.4349 2.52263 18.1843 2.64709 18.8096 2.95608L19.1848 1.22337C18.5595 0.975529 17.8716 0.851074 17.2473 0.851074C15.1848 0.851074 13.6839 1.9658 13.6839 3.51291C13.6839 4.68986 14.747 5.30785 15.4975 5.68014C16.3093 6.05136 16.622 6.29919 16.5595 6.67041C16.5595 7.22724 15.9341 7.47508 15.3099 7.47508C14.5594 7.47508 13.809 7.28947 13.1222 6.9794L12.747 8.71319C13.4974 9.02218 14.3093 9.14664 15.0597 9.14664C17.3724 9.20779 18.8096 8.09413 18.8096 6.42258C18.8096 4.31757 15.8716 4.19419 15.8716 3.26614ZM26.25 9.08471L24.5627 1.03698H22.7502C22.375 1.03698 21.9998 1.28482 21.8748 1.65604L18.7502 9.08471H20.9378L21.3745 7.90882H24.0624L24.3125 9.08471H26.25ZM23.0633 3.20424L23.6875 6.23729H21.9376L23.0633 3.20424Z" fill="#1334CB"/>
</svg>
